<svg xmlns="http://www.w3.org/2000/svg" width="581.39" height="641.02" viewBox="0 0 581.39 641.02"><title>tech-mind</title><path d="M409,80h25a19.85,19.85,0,0,0,4,1,343.6,343.6,0,0,1,73.82,11.18c56.88,15.3,102.73,46.33,134.63,96.33,20.83,32.66,31.83,68.81,34.72,107.44,3,40.22-2.95,78.83-19.9,115.64-14.42,31.35-34.86,58.49-58,83.72a97.06,97.06,0,0,0-21.45,37.22c-6,19.21-8,39-9.22,59-1.85,30.92,1.41,61.19,12.32,90.28,5,13.31,11.28,26.14,17,39.19-2.5,0-5,0-7.5,0L294,721c-2-11.44-4.09-22.85-5.79-34.32-1.58-10.69-2.38-21.49-4.08-32.16-1.65-10.36-7.71-16.07-18-15.54-13.4.7-26.78,2.45-40.06,4.46-14.22,2.15-28.33,3.71-42.69,1.48-24.42-3.78-37.25-20.52-34.56-45,1.22-11.08,5.43-21.16,9.36-31.37,2.48-6.44,1.79-9.17-3.6-13.36-2.09-1.63-4.51-2.87-6.51-4.59a34.43,34.43,0,0,1-6.19-6.41c-3.11-4.57-2.49-8.07,2.11-11,3.44-2.23,7.34-3.77,11.1-5.47,1.83-.83,3.82-1.31,5.71-2C154.4,524.17,148.2,523,142.3,521s-7.61-5.11-6.36-11.16c1.44-7,3.63-13.76,5.47-20.64,1.39-5.22.9-7.37-3.78-10a124.32,124.32,0,0,0-14-6.34c-4.89-2-10-3.49-14.78-5.82-7.24-3.57-9.77-9.72-7.54-17.42a31.23,31.23,0,0,1,3.3-7.77q23.74-38,47.67-76c2.29-3.65,4.62-7.28,7-10.91,1.81-2.8,1.37-5.31-.86-7.66-1.14-1.21-2.18-2.52-3.32-3.73a16.61,16.61,0,0,1-4.64-15.1c1-5.89,1.67-11.85,2.57-17.77,6.85-44.95,22.36-86.66,47.47-124.6,23.73-35.86,54-64.31,94.06-81.41C328.86,90,364.81,82.86,402,81.08A68.06,68.06,0,0,0,409,80Zm107.92,81.45c-2.15-3.36-3.79-6.71-6.14-9.44-10.47-12.12-23.79-14.22-38.55-10.2-2.89.79-4.93,1-7.51-1.3a28.79,28.79,0,0,0-9.87-5.58c-16.75-5.64-32.79-3.51-47.84,5.57-2.43,1.46-4.11,1.66-6.7.54-11.74-5-23.7-6.31-35.77-1a42,42,0,0,0-19.18,16.48c-7.52-.59-14.31-2.07-20.9-1.43-15.29,1.48-28.79,7.56-37.51,20.73-3.29,5-6.45,7.33-12.38,8.24-15,2.31-22.29,12.1-20.75,26.24l-2.47,1.45c-22.43,13-33.49,32.72-33.08,58.48.19,11.66,4.48,21.9,15.72,27.52,3.12,1.57,6.77,2.08,10.18,3.07-2.62,14.94.89,22.82,13.37,29.31a54.31,54.31,0,0,0,10.12,4.06c17.17,4.87,34.77,7.34,52.49,9,5.2.48,10.42.73,16,1.11-.61,1.2-1,1.92-1.35,2.62-8.08,15.18-5.32,27.8,8.46,38.07,9.65,7.19,20.61,11.21,32.44,13.15a121.35,121.35,0,0,1,13.61,3c15.27,4.36,26.59,13.06,31.81,28.75,3.3,9.9,7.38,19.53,10.74,29.41,3.3,9.71,6.14,19.59,9.27,29.65,5.6,0,11.08-.08,16.56,0,2.32.05,3.11-.88,3.52-3.11,1.15-6.37,2.58-12.69,3.94-19,1.43-6.67,2.91-13.33,4.38-20.07,3.69,3.51,6.82,6.75,10.23,9.65,7.35,6.28,15.71,10.56,25.48,11.49,17.86,1.72,33.32-8.2,40.7-26.62,3-7.44,4.87-15.3,7.28-23.07,13.83,4.25,28.15,6.91,40.19-4.29,11.39-10.6,14.06-24.38,10.55-39.47,14.26-6.71,23-17.91,26-32.88,6.34-31.57.54-60.36-21.63-85.33,5.42-8.09,6.92-17,2.33-26.42-4.4-9-11.55-15.25-20.28-19.62.59-17.66-7.56-26.17-26.11-27.5C552.6,158.78,532.9,153.8,516.92,161.45Z" transform="translate(-100.53 -80)" fill="#fff"/><path d="M512.87,217.65c6.16-5.09,12-9.71,17.57-14.72,1.08-1,1.31-3.5,1.11-5.21-.84-7,3.22-13.64,9.77-15.53,5.06-1.46,10.38-.05,13.18,3.5A15.13,15.13,0,0,1,556,202.11c-2.61,4.72-7.8,7.9-12.86,6.72-3.87-.9-6.27.42-8.89,2.7-4.89,4.24-9.93,8.31-15.26,12.74,2.65,3,4.86,5.89,7.56,8.25,1,.89,3.26.9,4.79.58,6.76-1.41,11.38.28,14.6,5.69a14.81,14.81,0,0,1-1.7,16.8A12.53,12.53,0,0,1,529.71,259c-5.48-2.44-9.16-8.25-8.11-14.13.58-3.27-.37-5.31-2.44-7.52-5.81-6.2-11.72-12.34-17.09-18.92-3.11-3.82-6.52-4.82-11.23-4.64-26.64,1-53.3,1.77-79.95,2.6-3,.1-6.1.72-9,.15-7.05-1.4-10.54,3.08-14,7.07,4.27,4.59,8.22,9,12.4,13.29q13.67,13.88,27.58,27.5a9.39,9.39,0,0,0,5.45,2.75c10,.45,20,.43,30,.75,2.71.09,4.3-.78,5.43-3.27,1.94-4.24,4-8.44,6.32-12.48,1.73-3,1.88-5.34,0-8.63-4.54-7.95.6-18,9.56-19.63,7.05-1.3,12.91,2.29,14.55,8.92,2,8-1.63,16-9.05,17.49-4.77,1-6.61,3.64-8.29,7.35-1.43,3.16-3.06,6.22-4.93,10,2,.19,3.34.41,4.72.43,22.33.35,44.66.73,67,1A20.55,20.55,0,0,1,562,273.6c8.57,6.9,17.32,13.55,26,20.32,1,.82,2.53,1.48,3,2.57.76,1.78,1.71,4.25,1,5.72-1.18,2.56-3.89,2.05-6.09.8a30,30,0,0,1-3.64-2.63c-8.68-6.75-17.28-13.62-26.1-20.19a12.44,12.44,0,0,0-6.75-2.39c-24.16-.51-48.33-.76-72.49-1.22-3.21-.07-5.12.71-6.63,3.8-6.35,13-12.95,25.93-19.57,38.83-1.08,2.1-1.45,3.78-.13,6a11.54,11.54,0,0,1,1.05,4.82c.64,7.56-4.54,14.16-11.65,15-6.81.79-13.34-4.47-14.47-11.68-1.11-7.05,3.93-14.63,11.16-15.22,4.67-.39,6.5-2.68,8.26-6.32,4.88-10,10-19.95,15-29.93.72-1.44,1.31-2.94,2.25-5.08-2.32-.17-4.05-.38-5.78-.4q-61-.92-122-1.85c-2.9,0-4.77.54-6.61,3.12-4.26,6-11.49,7.1-17.21,3.24a13.59,13.59,0,0,1-4.25-18.48c3.7-6.14,12-8.87,17.81-5.35a16.07,16.07,0,0,1,5.41,6.26c1,1.93,1.93,2.67,4.06,2.69q40.74.47,81.49,1.07a14.67,14.67,0,0,0,2.09-.39c-3.53-3.92-6.59-7.74-10.07-11.11-18-17.37-36.14-34.56-54-52-2.81-2.72-4.57-2-7.18-.11q-33.86,24-67.88,47.74c-3,2.06-4,4.08-3.55,7.79a13.32,13.32,0,0,1-12,15c-6.83.53-13.21-5-14.09-12.18a13.61,13.61,0,0,1,15.15-15c3.89.54,6.61-.48,9.6-2.6Q306,221,339,197.91a32.89,32.89,0,0,0,5.15-4.62,44,44,0,0,1-5.42-3.49c-2.28-2-4-4.65-1.56-7.34s5.2-.94,7.37,1.1c5.21,4.91,10.36,9.9,15.53,14.86l20.69,19.79c6.72-6.46,13.37-12.69,19.76-19.17.87-.88.85-3.1.57-4.57-1-5.4-2.38-10.74-3.58-16.1-.32-1.46-1.08-3.11-.68-4.38.56-1.81,2-3.34,3.07-5,1.63,1.12,4.15,1.9,4.72,3.41,1.52,4,2.19,8.36,3.2,12.57l1.44,5.93c5.44-5.24,10.5-9.88,15.21-14.84.79-.84.25-3.11,0-4.68a14.11,14.11,0,0,1,9.64-15.15c5-1.51,10.42-.15,13.24,3.34a15.13,15.13,0,0,1,1.43,16.84c-2.73,4.66-8.06,7.77-13,6.36-4-1.14-6.14.5-8.61,2.93-6.18,6.08-12.51,12-18.76,18-1.14,1.09-2.15,2.31-3.78,4.06,3.48,0,6.08.07,8.68,0,26.48-.83,53-1.55,79.44-2.65,6-.25,10.73,1.07,14.29,6.11A72.65,72.65,0,0,0,512.87,217.65ZM322.15,269.13c.12-2.71-.84-4.8-3.76-4.85a4.86,4.86,0,0,0-5.29,4.85c-.2,2.84,1.37,5,4.26,5.15C320.65,274.45,321.91,272.1,322.15,269.13Zm-56-9c.13-2.68-.8-4.78-3.73-4.84a4.86,4.86,0,0,0-5.3,4.84,4.57,4.57,0,0,0,4.25,5.21C263.9,265.69,266,263.23,266.13,260.12Zm176-90.55c0-3.6-1.22-5.46-4.11-5.28a4.84,4.84,0,0,0-4.94,5.2c0,2.78,1.7,4.91,4.64,4.8C441,174.17,442.09,171.72,442.14,169.57Zm1,161.56c0-2.63-2.09-5-4.51-4.77a4.77,4.77,0,0,0-4.55,4.95,4.59,4.59,0,0,0,4.36,5C441,336.64,443.12,334.11,443.14,331.13Zm48-93.52c.05-3.45-1-5.41-4-5.32a4.87,4.87,0,0,0-5.08,5.06c-.07,2.85,1.63,4.93,4.5,4.93C489.84,242.29,491,239.87,491.13,237.61Zm58-41.43c.11-3.94-.94-5.94-3.85-5.89a4.84,4.84,0,0,0-5.15,5,4.52,4.52,0,0,0,4.45,5A4.21,4.21,0,0,0,549.1,196.18Zm-10,50.13c0-3.38-1.49-5.72-4-4.85-2,.7-4,3.18-4.88,5.32s2.33,4.87,4.64,4.55C538.07,250.89,539.12,248.62,539.15,246.31Z" transform="translate(-100.53 -80)" fill="#fff"/><path d="M475.71,362.09c-3.29,0-5.92.06-8.54,0-20.49-.52-41-1.26-61.47-1.47A19.87,19.87,0,0,1,390.75,354c-11.57-12-23.29-23.84-34.71-36a14.53,14.53,0,0,0-11.26-5.09c-15.66-.18-31.31-.8-47-1.27-1.15,0-2.68.2-3.38-.42-1.35-1.19-3.14-3-3.05-4.39s2.13-3.25,3.68-3.75c1.95-.62,4.27-.09,6.44,0,15.65.48,31.3,1.07,47,1.4a14.55,14.55,0,0,1,11.37,5.06c5.68,6.31,11.75,12.28,17.68,18.36.9.92,1.94,1.7,3.29,2.88,3.36-6,6.72-11.54,9.56-17.35.67-1.37-.09-3.74-.77-5.42-3.15-7.78.87-16.58,8.76-18.84,7.54-2.15,14.46,1.88,16,9.29,1.79,8.78-3,16.59-11.25,17.38a7.1,7.1,0,0,0-6.45,4.31c-3,5.75-6.31,11.34-9.67,17.29,4.35,4.64,8.57,9.31,13,13.73.89.87,2.74,1,4.16,1,24.49.72,49,1.31,73.46,2.07,3.31.11,5.51-.77,7.49-3.61,7.24-10.39,14.7-20.62,22.21-30.82,1.81-2.45,2.93-4.51,1.14-7.59a11,11,0,0,1-1-5.81,13.83,13.83,0,0,1,14.07-12.82c7.18.11,11.9,5.15,12.2,13,.29,7.32-4.9,14.1-11.89,14.14-4.25,0-6.36,1.8-8.29,4.92-1.39,2.25-3,4.33-4.85,6.9,5,2.8,9.52,5.58,14.28,7.89,1.47.72,3.6.52,5.32.2,13.76-2.53,27.49-5.25,41.25-7.75,2.8-.5,4.17-1.87,5.34-4.4,2.63-5.69,7.81-8.33,13.79-7.88,5.37.41,8.51,3.61,10.27,8.22a14.45,14.45,0,0,1-4,16c-5.49,4.67-12.69,4.31-17.82-1.38-2-2.21-3.72-2.66-6.47-2.1-9.8,2-19.64,3.76-29.45,5.65-1.25.23-2.46.68-4.6,1.29,5,2.86,9.38,5.27,13.66,7.77,1.42.83,3.11,1.64,3.93,2.94s1.15,3.38.55,4.5a5,5,0,0,1-4.06,2c-1.87-.16-3.74-1.26-5.46-2.23-13.79-7.73-27.54-15.52-41.64-23.49-2.33,3.16-4.6,6.19-6.83,9.26-5.38,7.42-10.56,15-16.18,22.21-2.35,3-2.08,5.13.29,7.75,4.48,4.93,8.67,10.13,13.27,14.95a9.2,9.2,0,0,0,5.51,2.64c6.14.46,12.32.32,18.48.6,2.36.11,3.84-.52,4.36-2.94a6.75,6.75,0,0,1,.89-1.78,13.85,13.85,0,0,1,16.42-6.21c5.08,1.66,8.46,7.7,8,14.16a13.71,13.71,0,0,1-11.18,12.44,11.31,11.31,0,0,1-10.84-3.79c-2.21-2.59-4.7-3.24-7.87-3.26-7.16-.05-14.32-.41-21.49-.53a9.84,9.84,0,0,1-8-4.17c-4.89-6.08-10.17-11.86-15.73-18.27-1.95,2.55-3.65,4.69-5.26,6.9-4.32,5.93-8.46,12-13,17.77a10.82,10.82,0,0,0-2.37,9.3,6.14,6.14,0,0,0,2.5,3.61,14.33,14.33,0,0,1,7,15.71A13.72,13.72,0,0,1,450.32,447a13.28,13.28,0,0,1-13.25-7.1c-2.81-5.18-2.47-11.85,2.2-15.59,4.14-3.32,4.48-6.95,3.82-11.36-.48-3.2.73-5.61,2.65-8.2,9.83-13.24,19.42-26.66,29.08-40A15,15,0,0,0,475.71,362.09Zm63.37,38.06c.17-3.76-.79-5.84-3.72-5.87a4.86,4.86,0,0,0-5.26,4.89c-.18,2.83,1.4,5,4.3,5.11A4.24,4.24,0,0,0,539.08,400.15Zm52-65.46c0-3.68-1.17-5.56-4.07-5.4a4.85,4.85,0,0,0-5,5.17c0,2.8,1.65,4.93,4.6,4.83C590,339.19,591.07,336.76,591.13,334.69Zm-66-26.5c.12-3.94-.93-5.94-3.85-5.91a4.86,4.86,0,0,0-5.15,5c-.12,2.84,1.5,5,4.4,5A4.27,4.27,0,0,0,525.1,308.19Zm-119-5.55c0-3.64-1.2-5.51-4.09-5.35a4.85,4.85,0,0,0-5,5.19c0,2.79,1.66,4.91,4.61,4.81C405,307.18,406.08,304.75,406.14,302.64Zm47,130.22c-.06-2.68-.94-4.53-4.07-4.31s-5.05,1.82-5,4.95c0,2.77,1.67,4.88,4.59,4.8C451.89,438.21,453.05,435.83,453.17,432.86Z" transform="translate(-100.53 -80)" fill="#fff"/></svg>